<?xml version="1.0" encoding="utf-8"?>
<!-- Generator: Adobe Illustrator 25.2.3, SVG Export Plug-In . SVG Version: 6.00 Build 0)  -->
<svg version="1.1" id="Layer_2" xmlns="http://www.w3.org/2000/svg" xmlns:xlink="http://www.w3.org/1999/xlink" x="0px" y="0px"
	 viewBox="0 0 1000 1000" style="enable-background:new 0 0 1000 1000; fill: #F8B709 " xml:space="preserve">
<rect x="249.93" y="463.88" width="499.07" height="14"/>
<path d="M499.69,803c-1.39,0-2.79-0.42-3.99-1.25l-256.06-177.4c-1.89-1.31-3.01-3.46-3.01-5.75c0-19.05,0-266.11,0-266.11h14
	c0,0,0,226.34,0,262.44l249.06,172.55l249.06-172.55V352.49c0-3.87,3.13-7,7-7s7,3.13,7,7V618.6c0,2.3-1.13,4.45-3.01,5.75
	l-256.06,177.4C502.48,802.58,501.09,803,499.69,803z"/>
<path d="M357.13,295.04L93.5,447.25c-3.35,1.93-7.63,0.79-9.56-2.56c-1.93-3.35-0.79-7.63,2.56-9.56l409.7-236.54
	c2.17-1.25,4.83-1.25,7,0l409.7,236.54c3.35,1.93,4.5,6.21,2.56,9.56c-1.3,2.25-3.65,3.5-6.07,3.5c-1.19,0-2.39-0.3-3.49-0.94
	L499.7,212.73L357.13,295.04L357.13,295.04z"/>
<polygon points="651.45,300.35 347.93,300.35 372.18,286.35 627.2,286.35 "/>
<polygon points="373.37,477.8 344.33,477.8 680.02,662.55 692.87,653.65 "/>
</svg>
